# xmcd
#
# Track frame offsets:
#	150
#	13477
#	29937
#	42787
#	58347
#	70077
#	84815
#	95842
#	112092
#	125627
#	138157
#	153065
#	164995
#	179580
#	193782
#	206842
#	222057
#	236555
#	257482
#	277345
#
# Disc length: 3874 seconds
#
# Revision: 4
# Processed by: cddbd v1.5.2PL0 Copyright (c) Steve Scherf et al.
# Submitted via: EasyCDDAExtractor 12.0.0.1
#
DISCID=3c0f2014
DTITLE=Various Artist - Disco Mix 96 [CD1]
DYEAR=1996
DGENRE=Disco
TTITLE0=Gloria Gaynor - I Will Survive
TTITLE1=Lipps Inc - Funkytown
TTITLE2=Heatwave - Boogie Nights
TTITLE3=Chakka Khan - I'm Every Woman
TTITLE4=Labelle - Lady Marmalade
TTITLE5=Jacksons - Blame It On the Boogie
TTITLE6=KC and The Sunshine Band - That's the Way I Like It
TTITLE7=Rufus and Chaka Khan - Ain't Nobody
TTITLE8=Shalamar - A Night to Remember
TTITLE9=The Real Thing - You To Me Are Everything
TTITLE10=Rose Royce - Is It Love You're After
TTITLE11=The Whispers - And The Beat Goes On
TTITLE12=Patrice Rushen - Forget Me Nots
TTITLE13=Tavares - Heaven Must Be Missing An Angel
TTITLE14=Sister Sledge - We Are Family
TTITLE15=Odyssey - Use It Up and Wear It Out
TTITLE16=Earth, Wind and Fire - Let's Groove
TTITLE17=Donna Summer - I Feal Love
TTITLE18=Sylvester - You Make Me Feel (Mighty Real)
TTITLE19=The Trammps - Disco Inferno
EXTD=
EXTT0=
EXTT1=
EXTT2=
EXTT3=
EXTT4=
EXTT5=
EXTT6=
EXTT7=
EXTT8=
EXTT9=
EXTT10=
EXTT11=
EXTT12=
EXTT13=
EXTT14=
EXTT15=
EXTT16=
EXTT17=
EXTT18=
EXTT19=
PLAYORDER=
